<svg width="274" height="73" viewBox="0 0 274 73" fill="none" xmlns="http://www.w3.org/2000/svg">
<path d="M25.84 45.6L46.56 12.64V56H51.36V4.72H46.48L26.16 37.52L5.76 4.72H0.240001V56H5.04V12.64L25.84 45.6ZM83.6581 56.88C94.6181 56.88 102.858 47.92 102.858 36.8C102.858 25.76 94.6181 16.8 83.6581 16.8C72.6981 16.8 64.4581 25.76 64.4581 36.8C64.4581 47.92 72.6981 56.88 83.6581 56.88ZM83.7381 52.48C75.2581 52.48 69.1781 45.36 69.1781 36.72C69.1781 28.08 75.2581 21.2 83.7381 21.2C92.1381 21.2 98.1381 28.08 98.1381 36.72C98.1381 45.36 92.1381 52.48 83.7381 52.48ZM143.143 25.28L145.943 21.84C142.823 18.72 137.863 16.8 132.023 16.8C120.823 16.8 112.583 25.76 112.583 36.8C112.583 47.92 120.823 56.88 131.863 56.88C137.463 56.88 142.583 55.04 145.703 51.84L143.143 48.4C140.503 51.04 136.503 52.48 131.943 52.48C123.463 52.48 117.303 45.36 117.303 36.72C117.303 28.08 123.383 21.2 132.103 21.2C136.583 21.2 140.343 22.72 143.143 25.28ZM160.578 33.2C160.578 25.76 164.818 21.2 171.858 21.2C178.898 21.2 183.138 25.76 183.138 33.2V56H187.858V32.32C187.858 22.88 181.938 16.8 172.738 16.8C167.298 16.8 162.978 19.28 160.578 23.28V0.959998H155.778V56H160.578V33.2ZM207.453 17.68H202.653V56H207.453V17.68ZM205.053 9.68C206.813 9.68 208.253 8.24 208.253 6.48C208.253 4.72 206.813 3.2 205.053 3.2C203.293 3.2 201.853 4.72 201.853 6.48C201.853 8.24 203.293 9.68 205.053 9.68ZM223.121 56H227.921V0.959998H223.121V56ZM242.39 17.68H237.35L254.63 56.48L252.63 61.76C250.79 66.56 248.95 68.16 246.07 68.16C243.83 68.16 241.83 67.36 240.15 65.84L237.83 69.52C240.07 71.52 243.11 72.56 245.83 72.56C251.35 72.56 254.55 69.12 256.63 63.44L273.99 17.68H269.19L256.79 50.64L242.39 17.68Z" fill="black"/>
</svg>
